<svg xmlns="http://www.w3.org/2000/svg"  viewBox="0 0 48 48" width="96px" height="96px"><path d="M 16.5 5 A 1.50015 1.50015 0 0 0 15 6.5 L 15 14 L 11.5 14 C 7.364 14 4 17.364 4 21.5 L 4 35.5 C 4 39.636 7.364 43 11.5 43 L 36.5 43 C 40.636 43 44 39.636 44 35.5 L 44 21.5 C 44 17.364 40.636 14 36.5 14 L 33 14 L 33 6.5 A 1.50015 1.50015 0 0 0 31.5 5 L 16.5 5 z M 18 8 L 30 8 L 30 14 L 18 14 L 18 8 z M 24 20 C 26.209 20 28 21.791 28 24 C 28 26.209 26.209 28 24 28 C 21.791 28 20 26.209 20 24 C 20 21.791 21.791 20 24 20 z M 18.447266 30 L 29.552734 30 C 30.352734 30 31 30.647266 31 31.447266 L 31 32.751953 C 31 34.974953 28.163 37 24 37 C 19.837 37 17 34.974953 17 32.751953 L 17 31.447266 C 17 30.647266 17.647266 30 18.447266 30 z"/></svg>